<svg
  xmlns="http://www.w3.org/2000/svg"
  xmlns:xlink="http://www.w3.org/1999/xlink"
  xmlns:svgjs="http://svgjs.com/svgjs"
  version="1.1"
  height="100%"
  preserveAspectRatio="none"
  viewBox="0 0 14400 5600"
><g mask="url(&quot;#SvgjsMask1025&quot;)" fill="none"><rect
      width="14400"
      height="5600"
      x="0"
      y="0"
      fill="url(#SvgjsLinearGradient1026)"
    /><path
      d="M5620.11 5545.36 a1280.51 1280.51 0 1 0 2561.02 0 a1280.51 1280.51 0 1 0 -2561.02 0z"
      fill="rgba(28, 83, 142, 0.4)"
      class="triangle-float2"
    /><path
      d="M12412.937,1843.036C12610.342,1846.904,12788.722,1729.976,12886.767,1558.596C12984.126,1388.416,12984.731,1181.263,12889.612,1009.821C12791.502,832.989,12615.154,706.408,12412.937,704.571C12207.753,702.707,12017.042,819.683,11921.018,1001.02C11830.425,1172.1,11872.557,1373.487,11970.209,1540.638C12066.832,1706.028,12221.428,1839.284,12412.937,1843.036"
      fill="rgba(28, 83, 142, 0.4)"
      class="triangle-float1"
    /><path
      d="M2756.034,3440.198C2977.296,3425.191,3167.029,3302.807,3284.652,3114.8C3411.179,2912.562,3488.746,2661.977,3373.642,2453.026C3255.445,2238.459,3000.927,2149.118,2756.034,2155.185C2522.296,2160.976,2315.713,2285.711,2189.249,2482.368C2049.92,2699.03,1955.498,2974.364,2086.681,3196.054C2216.312,3415.121,2502.069,3457.423,2756.034,3440.198"
      fill="rgba(28, 83, 142, 0.4)"
      class="triangle-float3"
    /><path
      d="M4871.286,5085.625C5082.762,5087.103,5324.227,5101.33,5441.028,4925.03C5566.077,4736.28,5512.748,4487.151,5396.511,4292.851C5283.688,4104.257,5091.027,3975.94,4871.286,3972.659C4645.807,3969.292,4432.589,4082.427,4318.174,4276.75C4202.087,4473.912,4186.028,4728.295,4315.175,4917.16C4432.354,5088.523,4663.695,5084.174,4871.286,5085.625"
      fill="rgba(28, 83, 142, 0.4)"
      class="triangle-float1"
    /><path
      d="M7423.5,3055.56C7651.519,3067.267,7888.455,2991.61,8007.962,2797.065C8132.348,2594.576,8112.56,2336.173,7990.759,2132.119C7872.016,1933.189,7655.041,1825.765,7423.5,1817.915C7175.656,1809.512,6901.458,1872.069,6785.464,2091.255C6673.912,2302.049,6802.899,2543.055,6934.499,2741.95C7049.022,2915.036,7216.229,3044.918,7423.5,3055.56"
      fill="rgba(28, 83, 142, 0.4)"
      class="triangle-float2"
    /><path
      d="M1901.48 4008.97 a1428.39 1428.39 0 1 0 2856.78 0 a1428.39 1428.39 0 1 0 -2856.78 0z"
      fill="rgba(28, 83, 142, 0.4)"
      class="triangle-float1"
    /><path
      d="M12630.90885705924 4131.190685724712L13259.154204654322 4828.927831147027 13956.891350076638 4200.682483551945 13328.646002481555 3502.94533812963z"
      fill="rgba(28, 83, 142, 0.4)"
      class="triangle-float3"
    /><path
      d="M5622.769054577241 281.5742176070363L5977.091373332469 1517.2429898092155 7212.760145534648 1162.9206710539884 6858.43782677942-72.74810114819098z"
      fill="rgba(28, 83, 142, 0.4)"
      class="triangle-float2"
    /><path
      d="M2730.0749972383423 1554.222076199053L2698.028164987605 636.5208709518301 1780.3269597403823 668.5677032025673 1812.3737919911196 1586.26890844979z"
      fill="rgba(28, 83, 142, 0.4)"
      class="triangle-float1"
    /><path
      d="M11032.12 4967.45 a1710.21 1710.21 0 1 0 3420.42 0 a1710.21 1710.21 0 1 0 -3420.42 0z"
      fill="rgba(28, 83, 142, 0.4)"
      class="triangle-float3"
    /></g><defs><mask id="SvgjsMask1025"><rect
        width="14400"
        height="5600"
        fill="#ffffff"
      /></mask><linearGradient
      x1="15.28%"
      y1="-39.29%"
      x2="84.72%"
      y2="139.29%"
      gradientUnits="userSpaceOnUse"
      id="SvgjsLinearGradient1026"
    ><stop stop-color="#0e2a47" offset="0" /><stop
        stop-color="#00459e"
        offset="1"
      /></linearGradient><style>
            @keyframes float1 {
                0%{transform: translate(0, 0)}
                50%{transform: translate(-10px, 0)}
                100%{transform: translate(0, 0)}
            }

            .triangle-float1 {
                animation: float1 5s infinite;
            }

            @keyframes float2 {
                0%{transform: translate(0, 0)}
                50%{transform: translate(-5px, -5px)}
                100%{transform: translate(0, 0)}
            }

            .triangle-float2 {
                animation: float2 4s infinite;
            }

            @keyframes float3 {
                0%{transform: translate(0, 0)}
                50%{transform: translate(0, -10px)}
                100%{transform: translate(0, 0)}
            }

            .triangle-float3 {
                animation: float3 6s infinite;
            }
        </style></defs></svg>
